HIERARCHY
ROOT Hips
{
	OFFSET -0.179506 -22.333345 2.821913
	CHANNELS 6 Xposition Yposition Zposition Zrotation Yrotation Xrotation 
	JOINT LeftUpLeg
	{
		OFFSET 6.951974 -9.140623 -0.681533
		CHANNELS 3 Zrotation Yrotation Xrotation
		JOINT LeftLeg
		{
			OFFSET 3.427654 -37.519855 -0.449580
			CHANNELS 3 Zrotation Yrotation Xrotation
			JOINT LeftFoot
			{
				OFFSET -1.359570 -39.796059 -4.369333
				CHANNELS 3 Zrotation Yrotation Xrotation
				JOINT LeftToe
				{
					OFFSET 2.635814 -5.579078 11.928840
					CHANNELS 3 Zrotation Yrotation Xrotation
					End Site
					{
						OFFSET 0.000000 0.000000 0.000000
					}
				}
			}
		}
	}
	JOINT RightUpLeg
	{
		OFFSET -6.767048 -9.052170 -0.431982
		CHANNELS 3 Zrotation Yrotation Xrotation
		JOINT RightLeg
		{
			OFFSET -3.829005 -38.256897 -0.885003
			CHANNELS 3 Zrotation Yrotation Xrotation
			JOINT RightFoot
			{
				OFFSET 1.577377 -39.841461 -4.231180
				CHANNELS 3 Zrotation Yrotation Xrotation
				JOINT RightToe
				{
					OFFSET -2.537174 -4.814398 12.334795
					CHANNELS 3 Zrotation Yrotation Xrotation
					End Site
					{
						OFFSET 0.000000 0.000000 0.000000
					}
				}
			}
		}
	}
	JOINT Spine
	{
		OFFSET -0.253288 10.896323 -2.669631
		CHANNELS 3 Zrotation Yrotation Xrotation
		JOINT Spine1
		{
			OFFSET 0.548704 13.518043 0.109247
			CHANNELS 3 Zrotation Yrotation Xrotation
			JOINT Spine2
			{
				OFFSET 0.145701 5.292222 2.542457
				CHANNELS 3 Zrotation Yrotation Xrotation
				JOINT Neck
				{
					OFFSET -0.277840 21.387037 -4.285703
					CHANNELS 3 Zrotation Yrotation Xrotation
					JOINT Head
					{
						OFFSET 0.515184 6.496960 5.134897
						CHANNELS 3 Zrotation Yrotation Xrotation
						End Site
						{
							OFFSET 0.000000 0.000000 0.000000
						}
					}
				}
				JOINT LeftShoulder
				{
					OFFSET 7.884473 12.174932 -3.408961
					CHANNELS 3 Zrotation Yrotation Xrotation
					JOINT LeftArm
					{
						OFFSET 9.097692 3.046888 -0.886815
						CHANNELS 3 Zrotation Yrotation Xrotation
						JOINT LeftForeArm
						{
							OFFSET 25.961220 -1.277207 -2.745643
							CHANNELS 3 Zrotation Yrotation Xrotation
							JOINT LeftHand
							{
								OFFSET 24.923361 0.898606 -0.117091
								CHANNELS 3 Zrotation Yrotation Xrotation
								End Site
								{
									OFFSET 0.000000 0.000000 0.000000
								}
							}
						}
					}
				}
				JOINT RightShoulder
				{
					OFFSET -8.175920 11.883285 -3.861528
					CHANNELS 3 Zrotation Yrotation Xrotation
					JOINT RightArm
					{
						OFFSET -9.601238 3.255117 -0.914307
						CHANNELS 3 Zrotation Yrotation Xrotation
						JOINT RightForeArm
						{
							OFFSET -25.374195 -1.332924 -2.140099
							CHANNELS 3 Zrotation Yrotation Xrotation
							JOINT RightHand
							{
								OFFSET -25.529810 0.777228 -0.555919
								CHANNELS 3 Zrotation Yrotation Xrotation
								End Site
								{
									OFFSET 0.000000 0.000000 0.000000
								}
							}
						}
					}
				}
			}
		}
	}
}
MOTION
Frames: 15
Frame Time: 0.033333
-125.023514 6.752268 95.903572 144.035678 6.221127 79.673272 11.519517 3.332170 -9.391284 -0.369249 11.525518 33.181290 -0.394557 6.354084 -16.949568 nan nan nan -6.966323 -4.103637 0.333331 -7.328073 -10.674554 43.060181 1.105549 -10.478523 -12.806522 nan nan nan -2.312906 6.983484 9.804304 3.657216 1.267954 2.626470 1.897954 4.829346 -6.192790 6.693297 -0.446389 3.426208 -1.640095 0.482400 26.840771 -15.567821 -18.432963 2.133658 -46.886088 -26.515735 4.912504 64.316409 -64.633656 -44.999987 28.068314 -29.821505 -30.647335 13.318820 30.099171 1.298571 44.716446 40.371494 10.173015 -89.343533 62.244472 -71.690669 -8.454398 26.466318 -27.004767 
-125.066429 6.327396 95.594704 142.873796 5.905043 80.285677 11.568735 3.427181 -10.270331 -0.263364 12.432760 33.686676 -0.403629 6.357693 -17.326483 nan nan nan -7.340725 -4.216536 1.154793 -7.554653 -10.840548 40.299743 0.982902 -10.253741 -13.527758 nan nan nan -2.412104 7.303645 9.875311 3.657636 1.149841 2.431396 1.845524 5.322046 -6.059085 6.672416 -0.118127 2.650691 -2.021237 -0.147662 27.372110 -15.158447 -18.688801 2.168575 -47.159335 -27.077814 4.865965 65.935400 -64.005758 -46.345256 27.679741 -30.148148 -30.811389 13.759290 29.598625 1.104400 45.933910 40.053257 11.347324 -93.056039 63.461754 -74.407846 -7.526105 26.439016 -27.458265 
-125.160515 5.972556 95.322929 141.878371 5.612575 80.765654 11.464444 3.665664 -11.000615 -0.127934 12.922903 34.121817 -0.272171 6.445230 -17.630297 nan nan nan -8.004127 -4.582085 2.075453 -7.479764 -10.812511 37.565920 0.426168 -9.988814 -14.237220 nan nan nan -1.885681 7.335122 10.246077 3.461545 1.012297 2.244314 1.835229 4.999616 -5.941214 5.459816 0.333285 2.198969 -2.223993 0.204031 27.512619 -15.035199 -18.257622 1.498564 -47.171721 -26.684330 4.461990 67.582718 -63.982802 -47.710112 27.539390 -30.222511 -31.152284 13.885430 30.144686 1.558785 47.002826 39.952741 12.286455 -96.180624 64.334999 -76.736108 -6.676466 27.001179 -26.930886 
-125.241028 5.615920 95.067810 140.821399 5.377170 81.235836 11.414229 3.885670 -11.669529 -0.085505 13.233870 34.480355 -0.260592 6.620166 -17.929958 nan nan nan -8.675380 -4.956468 2.836629 -7.211598 -10.547393 34.987264 -0.179786 -9.928122 -14.812758 nan nan nan -1.180665 7.283805 10.428807 3.301371 0.843553 2.380707 1.910263 4.360762 -5.854871 3.673788 0.884526 2.015253 -2.229759 1.049066 27.205491 -14.940460 -17.727202 0.605779 -47.010789 -25.726795 3.802177 69.350105 -64.176590 -49.425850 27.737380 -29.983379 -30.960058 13.654042 31.176690 2.150031 48.170823 39.882701 13.281676 -99.142157 64.925693 -79.511116 -5.752918 27.090527 -26.412614 
-125.334473 5.243784 94.833481 139.651800 5.196750 81.735224 11.401581 4.117813 -12.387409 0.096284 13.597504 34.889005 -0.235652 6.836722 -18.291998 nan nan nan -9.365864 -5.310509 3.370093 -6.900100 -10.239114 32.648282 -0.449875 -9.663207 -15.292833 nan nan nan -1.004080 7.460149 10.746821 3.293778 0.738090 2.105423 1.926827 4.705754 -5.548996 3.514385 1.136271 1.033473 -2.628919 0.997250 27.665923 -14.121169 -17.760542 0.593349 -47.540695 -26.254464 3.501740 69.962829 -63.862082 -49.094485 28.586163 -29.599898 -29.867438 13.509164 30.234733 1.326699 50.135133 39.414766 14.896306 -102.850703 66.281597 -82.379598 -5.373178 26.988744 -27.724806 
-125.441772 4.871355 94.603828 138.446735 5.041022 82.316694 11.425902 4.170233 -13.200366 0.409512 14.272234 35.300536 -0.098128 7.086944 -18.522246 nan nan nan -10.101841 -5.523601 3.664295 -6.420521 -9.814969 30.497992 -0.663251 -9.377402 -15.626400 nan nan nan -0.749509 7.525205 10.522312 3.398316 0.585372 2.509602 1.929320 4.837564 -5.577875 3.046561 1.403195 0.678528 -3.044234 1.349040 27.887109 -13.808764 -17.778207 0.563137 -47.499854 -26.290683 3.287383 71.226852 -63.089371 -50.631685 28.345647 -29.587455 -29.836161 13.912978 29.991803 1.293154 50.489344 38.984036 15.804089 -105.541127 67.041924 -85.196304 -3.175480 27.561048 -26.897984 
-125.546074 4.486021 94.398270 137.303345 4.962595 82.906748 11.497954 4.223871 -14.092693 0.709757 14.768583 35.773289 -0.072706 7.436032 -18.614724 nan nan nan -10.797003 -5.615261 3.792471 -5.891877 -9.389136 28.597999 -0.670022 -9.046068 -15.872762 nan nan nan -0.443399 7.561533 10.303781 3.594960 0.478161 2.681195 2.007538 4.677228 -5.299588 2.383135 1.805645 0.364318 -3.543811 1.757660 27.924391 -13.743485 -17.644002 0.588565 -47.134153 -26.299708 2.923245 72.311683 -62.347640 -51.778450 28.454398 -29.475008 -30.084546 14.224848 29.738699 1.423224 50.808132 38.839543 16.654070 -108.193174 68.051421 -87.617266 -2.413448 27.792673 -27.082063 
-125.640495 4.081901 94.237022 136.079292 4.927857 83.332334 11.624765 4.395490 -14.829318 1.047455 15.106127 36.284655 -0.199183 7.829314 -18.560932 nan nan nan -11.445355 -5.672318 3.931958 -5.310378 -8.674749 26.805893 -0.906572 -8.571932 -15.888549 nan nan nan -0.044921 7.595368 10.470801 3.750966 0.434831 2.635889 2.115986 4.407555 -5.014280 1.618282 2.373781 0.141414 -4.017597 2.118019 27.670591 -13.630631 -17.418898 0.584110 -46.679252 -26.139155 2.349645 73.179549 -61.782167 -52.621308 29.044698 -29.307927 -30.742262 14.242339 29.366305 1.417564 51.702015 38.666806 17.702412 -111.228570 69.191582 -90.461860 -2.928720 27.289409 -28.090798 
-125.727928 3.633258 94.100235 134.764027 4.959072 83.720455 11.907975 4.579992 -15.542943 1.452058 15.584832 36.833908 -0.357161 8.191426 -18.361690 nan nan nan -11.960340 -5.653574 3.979765 -4.801384 -7.770561 25.073912 -1.058846 -8.065501 -15.411185 nan nan nan 0.341804 7.572674 10.746282 3.909330 0.339146 2.674376 2.223463 4.249626 -4.909260 0.899165 3.064483 -0.006670 -4.383010 2.513683 27.308608 -13.364868 -17.200673 0.639901 -46.147101 -25.747696 1.567843 74.158250 -61.270732 -53.704508 29.277306 -29.064579 -31.164797 14.230012 29.047499 1.371879 52.855434 38.424372 18.771752 -114.380401 70.132950 -93.303670 -3.293107 26.583904 -28.703799 
-125.818672 3.166776 93.972496 133.468089 4.986862 84.178645 12.238201 4.716394 -16.325314 1.842055 16.083113 37.397168 -0.482113 8.420466 -18.051325 nan nan nan -12.482044 -5.632679 3.873910 -4.431155 -6.853703 23.425071 -0.817671 -7.456183 -14.459610 nan nan nan 0.644194 7.543168 10.911728 4.087758 0.187623 2.664378 2.357735 4.116786 -4.723885 0.126256 3.576903 -0.133103 -4.666489 3.029391 27.002657 -13.028645 -16.976000 0.738279 -45.572070 -25.303456 0.761458 74.985092 -60.718144 -54.863796 29.522372 -28.925270 -31.517195 14.171883 28.851729 1.337899 53.747557 38.059907 19.715988 -117.358864 70.817445 -95.979750 -2.866921 26.386404 -28.843635 
-125.870979 2.715696 93.858932 132.274658 5.022257 84.505675 12.559257 4.787071 -16.905280 2.194440 16.347168 37.861596 -0.643679 8.634540 -17.864346 nan nan nan -13.023978 -5.618954 3.945626 -4.023962 -5.786534 21.791753 -0.502566 -6.682478 -13.376861 nan nan nan 0.924265 7.553237 11.142598 4.298271 0.007670 2.614729 2.504566 3.910297 -4.396819 -0.566490 4.019919 -0.370114 -4.998674 3.528115 26.773722 -12.678836 -16.787472 0.874099 -44.971329 -24.903835 -0.033246 75.701572 -60.016784 -55.993093 29.628902 -29.026489 -31.520600 14.059584 28.542863 1.108458 54.367798 37.652089 20.595274 -119.838750 71.392900 -98.565200 -1.751061 26.730672 -28.417408 
-125.914841 2.255706 93.765854 131.069897 4.977534 84.905946 12.813376 4.789721 -17.438388 2.475267 16.618482 38.111684 -0.842989 8.808426 -17.666967 nan nan nan -13.667453 -5.462366 3.825635 -3.457488 -4.600397 20.357504 -0.045814 -5.920952 -12.476718 nan nan nan 1.110251 7.558820 11.157984 4.494387 -0.172182 2.799219 2.576749 3.655841 -4.239145 -1.007336 4.741273 -0.470337 -5.415503 4.027126 26.545341 -12.363180 -16.644903 1.185053 -44.232019 -24.385478 -0.913323 76.370993 -59.205850 -56.742780 29.921317 -29.140654 -31.432520 14.107021 28.154167 1.016355 55.263450 37.259440 21.629113 -122.396210 72.095385 -100.801318 -1.751099 26.859576 -28.728593 
-125.940735 1.777005 93.710297 129.908838 4.934172 85.368556 13.116853 4.913938 -17.947408 2.598595 16.817376 38.205540 -1.073100 8.840454 -17.399309 nan nan nan -14.254434 -5.383159 3.567539 -2.943531 -3.272151 19.087477 0.531343 -5.182096 -11.891424 nan nan nan 1.280480 7.453814 11.094930 4.636176 -0.375322 3.044293 2.620167 3.382763 -4.318297 -1.549028 5.310402 -0.180966 -5.713444 4.871980 26.200040 -12.124369 -16.471729 1.591305 -43.382382 -23.626725 -1.863007 76.919766 -58.505638 -57.516896 30.137731 -29.244021 -31.245931 14.237776 27.844070 1.032513 56.011106 36.775772 22.471367 -124.345009 72.711936 -102.661845 -0.532539 27.258985 -27.877510 
-125.941475 1.294094 93.652771 128.810021 4.904632 85.899961 13.500244 5.115124 -18.473509 2.593036 17.017505 38.270718 -1.301188 8.888400 -17.229472 nan nan nan -14.796379 -5.333434 3.251578 -2.483140 -2.049661 17.881141 1.050825 -4.153336 -11.533294 nan nan nan 1.335949 7.381294 10.870797 4.849060 -0.614710 3.271022 2.653949 3.162162 -4.391717 -1.955158 5.913551 0.243002 -6.109868 5.385126 25.863851 -11.886696 -16.372207 2.194719 -42.512961 -22.915088 -2.798687 77.310383 -57.788687 -57.810340 30.873699 -29.130663 -31.672483 14.408553 27.331915 1.058742 56.956372 36.209767 23.422973 -127.152019 73.510683 -105.037215 -1.009045 27.223379 -28.685181 
-125.922905 0.803121 93.590637 127.762984 4.817611 86.449044 13.859738 5.384637 -18.985480 2.510708 17.220451 38.305773 -1.645326 8.885992 -17.117727 nan nan nan -15.361304 -5.199132 3.006801 -1.999984 -0.920715 16.541067 1.491154 -3.109652 -11.246246 nan nan nan 1.300885 7.322522 10.478542 5.061699 -0.954513 3.694859 2.678022 2.988940 -4.399563 -2.402600 6.607052 0.540189 -6.449955 5.738390 25.393990 -11.657114 -16.385256 2.803596 -41.484035 -22.041732 -3.680968 77.782420 -56.975945 -58.466764 31.310054 -29.121199 -31.967268 14.672237 26.928949 1.289411 57.170940 35.822808 23.785180 -130.624082 74.091027 -108.656568 -0.837385 27.091357 -29.882544 
